<svg width="136" height="24" viewBox="0 0 136 24" fill="none" xmlns="http://www.w3.org/2000/svg">
<path d="M11.5121 0L15.0695 7.90031L23.0242 9.16718L17.2682 15.3167L18.627 24L11.5121 19.9003L4.39723 24L5.75605 15.3167L0 9.16718L7.95467 7.90031L11.5121 0Z" fill="#D89719"/>
<path d="M39.7561 0L43.3135 7.90031L51.2682 9.16718L45.5121 15.3167L46.8709 24L39.7561 19.9003L32.6412 24L34 15.3167L28.2439 9.16718L36.1986 7.90031L39.7561 0Z" fill="#D89719"/>
<path d="M68 0L71.5574 7.90031L79.5121 9.16718L73.7561 15.3167L75.1149 24L68 19.9003L60.8851 24L62.2439 15.3167L56.4879 9.16718L64.4426 7.90031L68 0Z" fill="#D89719"/>
<path d="M96.2439 0L99.8014 7.90031L107.756 9.16718L102 15.3167L103.359 24L96.2439 19.9003L89.1291 24L90.4879 15.3167L84.7318 9.16718L92.6865 7.90031L96.2439 0Z" fill="#D89719"/>
<path d="M124.488 0L128.045 7.90031L136 9.16718L130.244 15.3167L131.603 24L124.488 19.9003L117.373 24L118.732 15.3167L112.976 9.16718L120.93 7.90031L124.488 0Z" fill="#908060"/>
</svg>
