<svg width="272" height="48" viewBox="0 0 272 48" fill="none" xmlns="http://www.w3.org/2000/svg">
<path d="M272 23.9659L262.283 48H259.276L262.884 39.5915L256.49 23.9659H259.656L264.277 35.9489H264.34L268.835 23.9659H272Z" fill="#F5F5F5"/>
<path d="M256.478 40.6468H252.964L248.121 32.783L245.748 35.3021V40.6468H242.836V16.2723H245.748V31.2851L252.458 23.9659H256.193V24.1021L250.147 30.5702L256.478 40.5106V40.6468Z" fill="#F5F5F5"/>
<path d="M240.301 36.017C240.301 37.4695 239.71 38.695 238.528 39.6936C237.347 40.6922 235.859 41.1915 234.065 41.1915C232.504 41.1915 231.132 40.7603 229.951 39.8979C228.769 39.0128 227.925 37.8553 227.418 36.4255L230.014 35.2341C230.394 36.2326 230.942 37.0156 231.66 37.583C232.398 38.1277 233.2 38.4 234.065 38.4C234.994 38.4 235.764 38.1844 236.376 37.7532C237.009 37.322 237.326 36.8114 237.326 36.2213C237.326 35.1546 236.566 34.3716 235.047 33.8723L232.388 33.1575C229.37 32.3404 227.861 30.7745 227.861 28.4596C227.861 26.939 228.431 25.7248 229.571 24.817C230.731 23.8865 232.208 23.4213 234.002 23.4213C235.374 23.4213 236.608 23.7731 237.705 24.4766C238.824 25.1801 239.605 26.122 240.048 27.3021L237.452 28.4596C237.157 27.756 236.671 27.2114 235.996 26.8255C235.342 26.417 234.603 26.2128 233.78 26.2128C233.021 26.2128 232.335 26.417 231.723 26.8255C231.132 27.234 230.837 27.7333 230.837 28.3234C230.837 29.2766 231.67 29.9575 233.337 30.366L235.68 31.0128C238.76 31.8298 240.301 33.4979 240.301 36.017Z" fill="#F5F5F5"/>
<path d="M209.988 32.3064C209.988 29.7419 210.737 27.6199 212.235 25.9404C213.754 24.261 215.664 23.4213 217.964 23.4213C220.264 23.4213 222.163 24.261 223.662 25.9404C225.181 27.6199 225.941 29.7419 225.941 32.3064C225.941 34.8936 225.181 37.0156 223.662 38.6724C222.163 40.3518 220.264 41.1915 217.964 41.1915C215.664 41.1915 213.754 40.3518 212.235 38.6724C210.737 36.9929 209.988 34.8709 209.988 32.3064ZM212.9 32.3064C212.9 34.0993 213.385 35.5518 214.356 36.6638C215.326 37.7759 216.529 38.3319 217.964 38.3319C219.399 38.3319 220.602 37.7759 221.573 36.6638C222.543 35.5518 223.029 34.0993 223.029 32.3064C223.029 30.5362 222.543 29.095 221.573 27.983C220.581 26.8482 219.378 26.2809 217.964 26.2809C216.55 26.2809 215.348 26.8482 214.356 27.983C213.385 29.095 212.9 30.5362 212.9 32.3064Z" fill="#F5F5F5"/>
<path d="M193.719 23.966H196.504V26.2809H196.631C197.074 25.4638 197.749 24.783 198.656 24.2383C199.585 23.6936 200.545 23.4213 201.537 23.4213C203.436 23.4213 204.892 24.0114 205.905 25.1915C206.939 26.3489 207.456 28.0057 207.456 30.1617V40.6468H204.544V30.366C204.48 27.6426 203.204 26.2809 200.714 26.2809C199.553 26.2809 198.583 26.7915 197.802 27.8128C197.021 28.8114 196.631 30.0142 196.631 31.4213V40.6468H193.719V23.966Z" fill="#F5F5F5"/>
<path d="M176.563 16.2723H179.475V23.9659L179.349 26.2808H179.475C179.918 25.4638 180.594 24.783 181.501 24.2383C182.43 23.6936 183.39 23.4213 184.381 23.4213C186.281 23.4213 187.737 24.0113 188.749 25.1915C189.783 26.3489 190.3 28.0057 190.3 30.1617V40.6468H187.388V30.7745C187.388 27.7787 186.154 26.2808 183.685 26.2808C182.503 26.2808 181.501 26.8142 180.678 27.8808C179.876 28.9248 179.475 30.1503 179.475 31.5574V40.6468H176.563V16.2723Z" fill="#F5F5F5"/>
<path d="M171.36 40.9191C170.094 40.9191 169.038 40.4993 168.194 39.6596C167.371 38.8199 166.949 37.6511 166.928 36.1532V26.8255H164.206V23.966H166.928V18.8596H169.84V23.966H173.639V26.8255H169.84V35.1319C169.84 36.244 170.041 37.0043 170.442 37.4128C170.843 37.7986 171.296 37.9915 171.803 37.9915C172.035 37.9915 172.256 37.9688 172.467 37.9234C172.7 37.8553 172.911 37.7759 173.101 37.6851L174.018 40.4766C173.259 40.7716 172.373 40.9191 171.36 40.9191Z" fill="#F5F5F5"/>
<path d="M162.185 18.2128C162.185 18.8255 161.985 19.3475 161.584 19.7787C161.183 20.2099 160.698 20.4255 160.128 20.4255C159.558 20.4255 159.073 20.2099 158.672 19.7787C158.271 19.3475 158.071 18.8255 158.071 18.2128C158.071 17.6 158.271 17.078 158.672 16.6468C159.073 16.2156 159.558 16 160.128 16C160.698 16 161.183 16.2156 161.584 16.6468C161.985 17.078 162.185 17.6 162.185 18.2128ZM161.584 23.966V40.6468H158.672V23.966H161.584Z" fill="#F5F5F5"/>
<path d="M156.523 23.9659L151.521 40.6468H148.546L144.685 27.8468L140.855 40.6468H137.911L132.91 23.9659H135.949L139.399 36.5617H139.43L143.26 23.9659H146.267L150.097 36.5617H150.129L153.547 23.9659H156.523Z" fill="#F5F5F5"/>
<path d="M117.71 16.2723H120.622V23.9659L120.495 26.2808H120.622C121.065 25.4638 121.74 24.783 122.647 24.2383C123.576 23.6936 124.536 23.4213 125.528 23.4213C127.427 23.4213 128.883 24.0113 129.896 25.1915C130.93 26.3489 131.447 28.0057 131.447 30.1617V40.6468H128.535V30.7745C128.535 27.7787 127.3 26.2808 124.831 26.2808C123.65 26.2808 122.647 26.8142 121.824 27.8808C121.022 28.9248 120.622 30.1503 120.622 31.5574V40.6468H117.71V16.2723Z" fill="#F5F5F5"/>
<path d="M108.263 41.1915C105.962 41.1915 104.053 40.3518 102.533 38.6724C101.035 36.9475 100.286 34.8255 100.286 32.3064C100.286 29.7419 101.035 27.6199 102.533 25.9404C104.053 24.261 105.962 23.4213 108.263 23.4213C109.845 23.4213 111.227 23.8525 112.409 24.7149C113.591 25.5546 114.477 26.7234 115.068 28.2213L112.409 29.4128C111.586 27.3248 110.141 26.2809 108.073 26.2809C106.743 26.2809 105.593 26.8596 104.623 28.017C103.673 29.1745 103.198 30.6043 103.198 32.3064C103.198 34.0085 103.673 35.4383 104.623 36.5958C105.593 37.7532 106.743 38.3319 108.073 38.3319C110.204 38.3319 111.702 37.288 112.567 35.2L115.163 36.3915C114.593 37.8894 113.696 39.0695 112.472 39.9319C111.27 40.7716 109.866 41.1915 108.263 41.1915Z" fill="#F5F5F5"/>
<path d="M93.141 40.8183C90.9397 41.4526 88.9236 41.1643 87.0926 39.9533C85.2617 38.7423 84.0377 36.8982 83.4205 34.421C82.8088 31.9658 82.9939 29.7273 83.9758 27.7057C84.9522 25.6621 86.5207 24.329 88.6812 23.7064C90.9029 23.0662 92.8599 23.3363 94.5522 24.5168C96.2593 25.6695 97.4597 27.6379 98.1533 30.422L98.2047 30.7596L86.4337 34.1518C86.8677 35.7184 87.6737 36.8489 88.8516 37.5432C90.0295 38.2376 91.2707 38.3968 92.5752 38.0209C94.3688 37.504 95.5349 36.1341 96.0734 33.9113L98.9082 34.5041C98.5742 36.0571 97.9015 37.3905 96.89 38.5043C95.899 39.6123 94.6493 40.3836 93.141 40.8183ZM86.0251 31.591L94.6164 29.1152C94.2563 28.0207 93.5989 27.2233 92.6441 26.7231C91.7043 26.1951 90.5923 26.1161 89.3082 26.4862C88.2483 26.7916 87.4185 27.4067 86.8187 28.3314C86.2393 29.2502 85.9748 30.3368 86.0251 31.591Z" fill="#F5F5F5"/>
<path d="M79.1535 40.9191C77.8874 40.9191 76.8323 40.4993 75.9882 39.6596C75.1652 38.8199 74.7432 37.6511 74.7221 36.1532V26.8255H72V23.966H74.7221V18.8596H77.6341V23.966H81.4324V26.8255H77.6341V35.1319C77.6341 36.244 77.8346 37.0043 78.2355 37.4128C78.6365 37.7986 79.0901 37.9915 79.5966 37.9915C79.8287 37.9915 80.0503 37.9688 80.2613 37.9234C80.4934 37.8553 80.7044 37.7759 80.8943 37.6851L81.8122 40.4766C81.0526 40.7716 80.1663 40.9191 79.1535 40.9191Z" fill="#F5F5F5"/>
<path d="M7.17576 0C5.32931 0 3.72364 1.4035 3.72364 3.26349V10.3758H3.45212C1.60568 10.3758 0 11.7793 0 13.6393C0 15.4993 1.60568 16.9028 3.45212 16.9028H3.72364L3.72364 37.826C3.72364 37.9304 3.72885 38.0339 3.7391 38.1363C3.89702 41.1666 5.25625 43.6322 7.39347 45.3109C9.59078 47.0367 12.3802 47.7584 15.0011 47.7097C17.4402 47.6645 20.0319 46.9152 22.1083 45.423C23.7077 47.0447 25.859 47.9832 28.251 47.9998C30.3954 48.0146 32.3475 47.2886 33.886 45.9834C35.4067 47.2607 37.3233 47.9852 39.4219 47.9998C44.6333 48.0359 48.4848 43.7705 48.4848 37.826V17.0946C48.4848 15.646 49.0333 14.8372 49.6635 14.3422C50.3761 13.7825 51.466 13.4253 52.7225 13.4486C54.0178 13.4727 55.1247 13.8574 55.888 14.481C56.6323 15.0891 57.0958 15.957 57.0958 17.0946V44.7365C57.0958 46.5965 58.7014 48 60.5479 48C62.3943 48 64 46.5965 64 44.7365V17.0946C64 13.7462 62.5038 11.1972 60.3461 9.49627C58.2126 7.81439 55.4514 6.97101 52.8581 6.9229C50.2372 6.87427 47.4478 7.59588 45.2504 9.32175C42.9707 11.1123 41.5806 13.7943 41.5806 17.0946V37.826C41.5806 39.5336 41.1161 40.4286 40.6828 40.8882C40.2391 41.3588 39.7351 41.4748 39.4726 41.473C39.1941 41.471 38.6736 41.3383 38.2176 40.8509C37.7741 40.377 37.3139 39.4811 37.3139 37.826V27.4603C37.3139 25.6003 35.7083 24.1968 33.8618 24.1968C32.0154 24.1968 30.4097 25.6003 30.4097 27.4603V37.826C30.4097 39.5336 29.9452 40.4286 29.5119 40.8882C29.0682 41.3588 28.5642 41.4748 28.3017 41.473C28.0232 41.471 27.5027 41.3383 27.0467 40.8509C26.6032 40.377 26.143 39.4811 26.143 37.826V17.0946C26.143 15.2346 24.5374 13.8311 22.6909 13.8311C20.8445 13.8311 19.2388 15.2346 19.2388 17.0946V37.5381C19.2388 38.6756 18.7753 39.5436 18.031 40.1516C17.2677 40.7753 16.1609 41.16 14.8655 41.184C13.609 41.2073 12.5192 40.8501 11.8065 40.2904C11.1769 39.7958 10.6289 38.988 10.6279 37.5422L10.6279 16.9028H10.8994C12.7458 16.9028 14.3515 15.4993 14.3515 13.6393C14.3515 11.7793 12.7458 10.3758 10.8994 10.3758H10.6279V3.26349C10.6279 1.4035 9.0222 0 7.17576 0Z" fill="#F5F5F5"/>
<path d="M37.88 5.44C37.88 6.93334 37.3467 8.21333 36.28 9.28C35.2667 10.3467 33.9867 10.88 32.44 10.88C30.9467 10.88 29.6667 10.3467 28.6 9.28C27.5333 8.21333 27 6.93334 27 5.44C27 3.89334 27.5333 2.61333 28.6 1.6C29.6667 0.533332 30.9467 0 32.44 0C33.9867 0 35.2667 0.533332 36.28 1.6C37.3467 2.61333 37.88 3.89334 37.88 5.44Z" fill="#F5F5F5"/>
</svg>
