<svg width="64" height="48" viewBox="0 0 64 48" fill="none" xmlns="http://www.w3.org/2000/svg">
<path d="M7.17576 0C5.32931 0 3.72364 1.4035 3.72364 3.26349V10.3758H3.45212C1.60568 10.3758 0 11.7793 0 13.6393C0 15.4993 1.60568 16.9028 3.45212 16.9028H3.72364L3.72364 37.826C3.72364 37.9304 3.72885 38.0339 3.7391 38.1363C3.89702 41.1666 5.25625 43.6322 7.39347 45.3109C9.59078 47.0367 12.3802 47.7584 15.0011 47.7097C17.4402 47.6645 20.0319 46.9152 22.1083 45.423C23.7077 47.0447 25.859 47.9832 28.251 47.9998C30.3954 48.0146 32.3475 47.2886 33.886 45.9834C35.4067 47.2607 37.3233 47.9852 39.4219 47.9998C44.6333 48.0359 48.4848 43.7705 48.4848 37.826V17.0946C48.4848 15.646 49.0333 14.8372 49.6635 14.3422C50.3761 13.7825 51.466 13.4253 52.7225 13.4486C54.0178 13.4727 55.1247 13.8574 55.888 14.481C56.6323 15.0891 57.0958 15.957 57.0958 17.0946V44.7365C57.0958 46.5965 58.7014 48 60.5479 48C62.3943 48 64 46.5965 64 44.7365V17.0946C64 13.7462 62.5038 11.1972 60.3461 9.49627C58.2126 7.81439 55.4514 6.97101 52.8581 6.9229C50.2372 6.87427 47.4478 7.59588 45.2504 9.32175C42.9707 11.1123 41.5806 13.7943 41.5806 17.0946V37.826C41.5806 39.5336 41.1161 40.4286 40.6828 40.8882C40.2391 41.3588 39.7351 41.4748 39.4726 41.473C39.1941 41.471 38.6736 41.3383 38.2176 40.8509C37.7741 40.377 37.3139 39.4811 37.3139 37.826V27.4603C37.3139 25.6003 35.7083 24.1968 33.8618 24.1968C32.0154 24.1968 30.4097 25.6003 30.4097 27.4603V37.826C30.4097 39.5336 29.9452 40.4286 29.5119 40.8882C29.0682 41.3588 28.5642 41.4748 28.3017 41.473C28.0232 41.471 27.5027 41.3383 27.0467 40.8509C26.6032 40.377 26.143 39.4811 26.143 37.826V17.0946C26.143 15.2346 24.5374 13.8311 22.6909 13.8311C20.8445 13.8311 19.2388 15.2346 19.2388 17.0946V37.5381C19.2388 38.6756 18.7753 39.5436 18.031 40.1516C17.2677 40.7753 16.1609 41.16 14.8655 41.184C13.609 41.2073 12.5192 40.8501 11.8065 40.2904C11.1769 39.7958 10.6289 38.988 10.6279 37.5422L10.6279 16.9028H10.8994C12.7458 16.9028 14.3515 15.4993 14.3515 13.6393C14.3515 11.7793 12.7458 10.3758 10.8994 10.3758H10.6279V3.26349C10.6279 1.4035 9.0222 0 7.17576 0Z" fill="#F5F5F5"/>
<path d="M37.88 5.44C37.88 6.93334 37.3467 8.21333 36.28 9.28C35.2667 10.3467 33.9867 10.88 32.44 10.88C30.9467 10.88 29.6667 10.3467 28.6 9.28C27.5333 8.21333 27 6.93334 27 5.44C27 3.89334 27.5333 2.61333 28.6 1.6C29.6667 0.533332 30.9467 0 32.44 0C33.9867 0 35.2667 0.533332 36.28 1.6C37.3467 2.61333 37.88 3.89334 37.88 5.44Z" fill="#F5F5F5"/>
</svg>
