<svg width="48" height="48" viewBox="0 0 48 48" fill="none" xmlns="http://www.w3.org/2000/svg">
<path d="M20.544 7.41C20.7528 7.74408 20.8938 8.11602 20.9588 8.50458C21.0239 8.89314 21.0118 9.2907 20.9232 9.67458C20.8346 10.0585 20.6713 10.4211 20.4425 10.7419C20.2138 11.0626 19.9241 11.3352 19.59 11.544C15.9387 13.8183 13.038 17.1175 11.25 21.03C13.0557 20.879 14.8649 21.2766 16.4409 22.1706C18.0169 23.0647 19.2863 24.4137 20.0831 26.041C20.8799 27.6684 21.1669 29.4984 20.9067 31.2916C20.6464 33.0847 19.8509 34.7576 18.6243 36.0912C17.3977 37.4249 15.7971 38.3573 14.0319 38.7663C12.2667 39.1754 10.4191 39.0422 8.73093 38.384C7.04272 37.7258 5.59249 36.5734 4.56997 35.0775C3.54745 33.5817 3.00026 31.812 3 30V29.919C3.00326 29.6868 3.01327 29.4547 3.03 29.223C3.057 28.773 3.111 28.143 3.216 27.369C3.426 25.83 3.837 23.709 4.668 21.327C6.324 16.557 9.678 10.662 16.41 6.456C16.7441 6.2472 17.116 6.10624 17.5046 6.04118C17.8931 5.97612 18.2907 5.98823 18.6746 6.07682C19.0585 6.16541 19.4211 6.32874 19.7419 6.55748C20.0626 6.78623 20.3352 7.07592 20.544 7.41ZM41.544 7.41C41.7528 7.74408 41.8938 8.11602 41.9588 8.50458C42.0239 8.89314 42.0118 9.2907 41.9232 9.67458C41.8346 10.0585 41.6713 10.4211 41.4425 10.7419C41.2138 11.0626 40.9241 11.3352 40.59 11.544C36.9387 13.8183 34.038 17.1175 32.25 21.03C34.0557 20.879 35.8649 21.2766 37.4409 22.1706C39.0169 23.0647 40.2863 24.4137 41.0831 26.041C41.8799 27.6684 42.1669 29.4984 41.9067 31.2916C41.6464 33.0847 40.8509 34.7576 39.6243 36.0912C38.3977 37.4249 36.7971 38.3573 35.0319 38.7663C33.2667 39.1754 31.4191 39.0422 29.7309 38.384C28.0427 37.7258 26.5925 36.5734 25.57 35.0775C24.5474 33.5817 24.0003 31.812 24 30V29.919C24.0033 29.6868 24.0133 29.4547 24.03 29.223C24.057 28.773 24.111 28.143 24.216 27.369C24.426 25.83 24.837 23.709 25.668 21.327C27.324 16.557 30.678 10.662 37.41 6.456C37.7441 6.2472 38.116 6.10624 38.5046 6.04118C38.8931 5.97612 39.2907 5.98823 39.6746 6.07682C40.0585 6.16541 40.4211 6.32874 40.7419 6.55748C41.0626 6.78623 41.3352 7.07592 41.544 7.41Z" fill="#A26EDE"/>
</svg>
