<svg width="24" height="24" viewBox="0 0 24 24" fill="none" xmlns="http://www.w3.org/2000/svg">
<path d="M20.9252 6.36C17.7902 1.5 11.3702 0.0599962 6.40517 3.075C1.56017 6.09 0.000172556 12.66 3.13517 17.505L3.39017 17.895L2.34017 21.825L6.27017 20.775L6.66017 21.03C8.35517 21.945 10.2002 22.47 12.0302 22.47C13.9952 22.47 15.9602 21.945 17.6552 20.895C22.5002 17.745 23.9402 11.31 20.9252 6.33V6.36ZM18.1802 16.47C17.6552 17.25 16.9952 17.775 16.0802 17.91C15.5552 17.91 14.8952 18.165 12.2852 17.13C10.0652 16.08 8.22017 14.37 6.91517 12.405C6.13517 11.49 5.73017 10.305 5.61017 9.12C5.61017 8.07 6.00017 7.155 6.66017 6.495C6.91517 6.24 7.18517 6.105 7.44017 6.105H8.10017C8.35517 6.105 8.62517 6.105 8.76017 6.63C9.01517 7.29 9.67517 8.865 9.67517 9C9.81017 9.135 9.75017 10.14 9.15017 10.71C8.82017 11.085 8.76017 11.1 8.89517 11.37C9.42017 12.15 10.0802 12.945 10.7252 13.605C11.5052 14.265 12.3002 14.79 13.2152 15.18C13.4702 15.315 13.7402 15.315 13.8752 15.045C14.0102 14.79 14.6552 14.13 14.9252 13.86C15.1802 13.605 15.3152 13.605 15.5852 13.725L17.6852 14.775C17.9402 14.91 18.2102 15.03 18.3452 15.165C18.4802 15.555 18.4802 16.08 18.2102 16.47H18.1802Z" fill="white"/>
</svg>
